<svg class="svg-canvas" viewBox="0 0 800 600" width="1600" height="1200" preserveAspectRatio="none" version="1.1" xmlns="http://www.w3.org/2000/svg" xmlns:xlink="http://www.w3.org/1999/xlink">
      <!--滤镜-->
      <defs></defs>
    
      <!-- 背景 -->
      <g id="background">
          <rect x="0" y="0" fill="#ffffff" width="800" height="600"></rect>
          
        </g>
    
      <!--元素-->
      
              <g id="shape_CmVlipROCh" ref="shape_CmVlipROCh" key="shape_CmVlipROCh" mask="">
                <g transform="translate(184.00000000000702,119.99999999999997) rotate(0,215.99999999999298,180.00000000000003) scale(1,1)" style="opacity: 1;" filter="">
                  <!--普通元素-->
                  <svg version="1.1" id="图层_1" xmlns="http://www.w3.org/2000/svg" xmlns:xlink="http://www.w3.org/1999/xlink" x="0px" y="0px" width="431.99999999998596" height="360.00000000000006" viewBox="0 0 30 25" style="enable-background:new 0 0 30 25;" xml:space="preserve" class="style-removed" preserveAspectRatio="none" data-parent="shape_CmVlipROCh">

<g>
	<path d="M12.7,17.4c0,0,0.1-2-1-2.6s-2.3-0.9-4-0.2c-0.8,0.2-3.2,1.4-3.2,4.4c0.1,1.4,3.2,4.6,6.9,1.6
		C12.5,19.6,12.7,17.4,12.7,17.4z" fill="#f9dc34" stroke-width="0"></path>
	<path d="M6.2,11c0,0-1.9,0.7-2.1,0.6c-0.1-0.1-0.1-0.1-0.3,0c-0.1,0.1-0.2,0.3-0.2,0.4c0,0.1,0.1,0.3,0.5,0c0.2,0,0.3,0,0.4-0.1
		c0.1-0.1,1.5-0.5,1.6-0.6C6.3,11.1,6.2,11,6.2,11z" fill="#000000" stroke-width="0"></path>
	<path d="M14.3,6.7c-0.3,0-0.8-0.2-0.9,0c-0.1,0.2-0.1,0.6-0.4,0.7c-0.3,0-3.1,0.4-3.6,3.8c-0.1,1.3,2.6,5.4,5.2,4.3
		c0.9-0.6,0.9-0.8,1.4-0.9c0.5,0,1.8-0.5,2-2.1C18.1,10.9,18.4,7.2,14.3,6.7z" fill="#fca92f" stroke-width="0"></path>
	<path d="M16.8,16.2c-0.3-0.1-0.6-0.2-0.9-0.2c-0.1,0-0.2,0-0.3-0.1c-0.2-0.1-0.3-0.2-0.3,0c-0.1,0.3-0.4,0.8-0.6,0.8
		c-0.2,0-2.3-0.4-3.3,3c-0.2,0.5-0.2,1.1,0,1.6c0.4,1.4,1.7,3.9,5.3,2.9c1.2,0,2-0.4,2.2-1.3C19.1,22,22.2,18.4,16.8,16.2z" fill="#e86826" stroke-width="0"></path>
	<path d="M13.8,16.4c-0.1-0.1-0.3-0.6-0.6-0.6c-0.3-0.1-0.5-0.2-0.6-0.2c-0.1,0,0.3,0.9,0.9,1C13.7,16.6,13.8,16.4,13.8,16.4z" fill="#000000" stroke-width="0"></path>
	<path d="M15.6,14.1c0,0,0.1-0.4,0-0.5s-0.2-0.3-0.3-0.3c-0.1,0.1-0.1,0.5-0.2,0.5c-0.2,0-0.2-0.4-0.3-0.3
		c-0.1,0.1-0.3,0.1,0,0.6c-0.1,0.2,0,0.1-0.3,0.1c-0.1,0-0.3,0.1-0.3,0.2c0.1,0.1,0.5-0.1,0.4,0.1c0,0.2-0.2,0.1-0.2,0.3
		c0.1,0.2,0.2,0.1,0.3,0.1c0.1,0,0.1,0.1,0.2,0.1c0.1,0,0.2-0.2,0.2-0.4c0-0.2,0.1-0.2,0.1-0.2c0,0,0.3,0,0.3,0.2
		c0.1,0,0.1-0.1,0.4-0.3c0.3-0.2,0.4-0.2,0.3-0.4c-0.1-0.1-0.3,0-0.5,0.2C15.8,14.1,15.7,14.2,15.6,14.1z" fill="#543200" stroke-width="0"></path>
	<path d="M17,22.4c0,0,0.3-0.5,0.1-0.6c-0.2-0.1-0.2-0.1-0.3,0.2c-0.1,0.2,0.1,0.3-0.1,0.2c-0.2,0-0.3-0.3-0.5-0.3
		c-0.2,0-0.5,0.1-0.6,0.3s-0.2,0.4-0.1,0.4c0.1,0,0.3-0.1,0.4-0.2c0.1,0,0.3,0,0.3,0.1s-0.2,0.2-0.3,0.2s-0.2,0.1-0.3,0.2
		c0,0.1,0.2,0.1,0.3,0.2c0.1,0.1,0,0.5,0.3,0.6c0.3,0,0-0.3,0.3-0.3c0.3,0.1,0.4,0.5,0.6,0.5c0.2,0,0.5-0.3,0.2-0.5
		c-0.3-0.2-0.4-0.2-0.3-0.3c0.1-0.1,0.6-0.1,0.6-0.4C17.5,22.3,17.2,22.8,17,22.4z" fill="#543200" stroke-width="0"></path>
	<path d="M8.8,21.1c-0.1-0.1-0.1-0.1,0-0.2c0.1-0.2-0.3-0.1-0.5,0.1c-0.1,0.1-0.2-0.1-0.2-0.1s-0.3-0.2-0.4-0.1
		c-0.1,0.1-0.3,0.4-0.2,0.4c0.1,0.1,0.6-0.1,0.6,0.1c0.1,0.1-0.2,0.1-0.3,0.2s0.3,0.6,0.7,0.3c0.1,0-0.1-0.2,0-0.3
		c0-0.1,0.3,0.2,0.4,0.1c0.1,0,0.5-0.4,0.3-0.4C9.2,21,8.9,21.2,8.8,21.1z" fill="#543200" stroke-width="0"></path>
	<path d="M10.2,9c0-0.1-0.3-0.1-0.9,0C8.9,9.2,8.6,8.5,8.1,8.4c-0.5-0.2-0.8-0.3-1-0.5C7,7.6,4.9,5.3,4.8,2.7c-0.1-0.3-1,1-0.7,1.5
		C4.3,4.8,4.4,4.7,4.3,5C4.3,5.3,4.2,5.4,4.4,5.6c0.2,0.3,0.8,0.1,1,0.8s1.4,1.7,1.5,1.9S6.6,8.5,6.7,9.1C6.7,9.5,6.3,9.5,6.4,9.9
		s0.1,0.5,0.1,0.9c-0.1,0.4,0,0.9-0.1,1.3c0,0.4-0.5,1.3-0.3,1.8c0.2,0.5,0.7,0.6,0.8,0s0-0.9,0.1-1.3c0.1-0.5,0.5,0,0.7,0.1
		c0.2,0.1,1.1,0.7,1.2,0.9s0.3,0.5,0.5,0.4c0.1-0.1,0.1-0.4,0.1-0.5c0-0.1,0.1-0.1,0-0.1c0-0.1,0.1-0.2-0.6-0.3
		c-0.3-0.2-0.7-0.6-1-0.7S7,12.2,7,12.1c0-0.1,0.1-0.2,0.2-0.4c0.1-0.2,0.6-0.7,0.4-0.9c-0.2-0.2-0.3-0.4-0.3-0.5S7.1,9.7,7.1,9.5
		c0-0.2,0.3-0.5,1.2,0S9,9.8,9.3,10c0.2,0.1,0.4,0.3,0.5,0.4c0.1,0.1,0.2,0.1,0.3,0C10.3,10.2,10.5,9.7,10.2,9z" fill="#000000" stroke-width="0"></path>
</g>
</svg>
                </g>
              </g>
              <g id="shape_Zhro1aYKmw" ref="shape_Zhro1aYKmw" key="shape_Zhro1aYKmw" mask="">
                <g transform="translate(-141.8248722743587,-393.1202353343695) rotate(0,679.5767803631961,706.5965020878817) scale(1,1)" style="opacity: 1;" filter="">
                  <!--普通元素-->
                  <svg xmlns="http://www.w3.org/2000/svg" version="1.1" xmlns:xlink="http://www.w3.org/1999/xlink" width="1359.153560726392" height="1413.193004175763" viewBox="0 0 578.4762000000001 601.4762000000001" data-ligature="true" data-parent="shape_Zhro1aYKmw"><g data-role="text" data-width="56.652746610944085" data-height="80" transform="translate(260.73810000000003, 260.73810000000003)"><path d="M31.46-40.15L31.46-40.15Q33.81-40.59 33.50-35.11Q33.20-29.64 28.16-15.95Q23.12-2.26 12.17 7.60Q1.22 17.47-1.09 18.08Q-3.39 18.69-3.39 18.38Q-3.39 18.08 4.30 11.91Q11.99 5.74 17.69-2.35Q23.38-10.43 23.38-12.73Q23.38-15.04 22.21-17.38Q21.03-19.73 17.38-23.20Q13.73-26.68 13.43-28.59Q13.12-30.51 13.86-31.24Q14.60-31.98 17.82-29.33Q21.03-26.68 26.25-18.60L26.25-18.60Q29.11-28.42 29.11-34.63Q29.11-40.85 31.46-40.15Z" transform="translate(0 68) " fill="#000000" stroke="#000000" stroke-width="0.145" data-glyph-w="20.58461830547204" data-glyph-h="95.25336" data-glyph-ascender="75.78552" data-glyph-descender="-19.46784" data-kerning="0"></path><path d="M13.64-31.90L13.64-31.90Q20.08-31.90 19.47-26.07L19.47-26.07Q19.47-22.60 17.12-19.64L17.12-19.64Q18.08-18.16 18.25-17.03L18.25-17.03Q25.29-23.12 28.20-25.77Q31.11-28.42 31.72-28.12Q32.33-27.81 31.16-26.03Q29.98-24.25 26.46-20.77Q22.94-17.30 19.82-12.43L19.82-12.43Q19.99-6.34 18.29-0.48Q16.60 5.39 13.38 9.43Q10.17 13.47 7.82 14.17Q5.48 14.86 4.35 12.99Q3.22 11.12 3.48 5.91Q3.74 0.70 7.26-4.22Q10.78-9.13 14.51-12.95L14.51-12.95L13.38-15.30Q10.17-12.95 7.30-12.95L7.30-12.95Q4.95-13.82 4.87-16.17L4.87-16.17Q3.74-21.38 6.69-25.46Q9.65-29.55 13.64-31.90ZM14.51-26.86L14.51-26.86Q8.95-23.73 8.95-17.30L8.95-17.30Q11.91-18.51 13.64-21.12Q15.38-23.73 14.51-26.86ZM15.64-8.00L15.64-8.00Q7.04 0.70 7.30 9.99L7.30 9.99Q15.38 1.83 15.64-8.00Z" transform="translate(20.58461830547204 68) " fill="#000000" stroke="#000000" stroke-width="0.145" data-glyph-w="20.671528305472044" data-glyph-h="95.25336" data-glyph-ascender="75.78552" data-glyph-descender="-19.46784" data-kerning="0"></path></g></svg>
                </g>
              </g>
              <g id="shape_xoJECV4gBN" ref="shape_xoJECV4gBN" key="shape_xoJECV4gBN" mask="">
                <g transform="translate(369.0168464398672,265.8108931360455) rotate(0,171.01627714320483,169.8415066334359) scale(1,1)" style="opacity: 1;" filter="">
                  <!--普通元素-->
                  <svg xmlns="http://www.w3.org/2000/svg" version="1.1" xmlns:xlink="http://www.w3.org/1999/xlink" width="342.03255428640966" height="339.6830132668718" viewBox="0 0 145.57420000000002 144.57420000000002" data-ligature="true" data-parent="shape_xoJECV4gBN"><g data-role="text" data-width="24.300900000000006" data-height="24" transform="translate(60.2871, 60.2871)"><path d="M7.90-10.97L12.04-10.97L12.04-10.37L10.69-10.19L6.35 1.37Q5.75 2.91 5.01 3.81Q4.28 4.70 3.54 5.08Q2.79 5.45 2.17 5.45L2.17 5.45Q1.33 5.45 0.66 5.00Q0 4.56-0.06 3.88L-0.06 3.88Q0.08 3.20 0.58 2.89Q1.09 2.59 1.67 2.59L1.67 2.59Q2.27 2.59 2.72 2.90Q3.18 3.22 3.56 3.70L3.56 3.70L3.88 4.12Q4.96 3.20 5.79 1.09L5.79 1.09L1.03-10.25L-0.14-10.37L-0.14-10.97L5.99-10.97L5.99-10.37L4.52-10.21L7.26-2.61L9.73-10.17L7.90-10.37L7.90-10.97Z" transform="translate(0 20) " fill="#000000" stroke="#000000" stroke-width="0.033" data-glyph-w="12.019800000000002" data-glyph-h="28.883700000000005" data-glyph-ascender="23.135100000000005" data-glyph-descender="-5.748600000000001" data-kerning="0"></path><path d="M5.59-4.44L5.59-4.44Q7.32-4.44 7.38-7.60L7.38-7.60Q7.38-9.09 6.90-9.90Q6.43-10.71 5.61-10.71L5.61-10.71Q3.92-10.71 3.84-7.60L3.84-7.60Q3.84-6.13 4.28-5.29Q4.72-4.44 5.59-4.44ZM7.48 0.70L7.48 0.70L5.25 0.70Q4.36 0.70 3.84 0.66Q3.32 0.62 2.85 0.48L2.85 0.48Q2.35 1.03 2.35 2.03L2.35 2.03Q2.35 4.22 5.29 4.32L5.29 4.32Q7.28 4.32 8.25 3.76Q9.23 3.20 9.23 2.33L9.23 2.33Q9.23 1.69 8.83 1.20Q8.44 0.70 7.48 0.70ZM11.62-11.32L11.98-11.10L11.98-9.53L9.55-9.79Q10.23-8.86 10.23-7.60L10.23-7.60Q10.23-6.55 9.73-5.69Q9.23-4.82 8.19-4.32Q7.16-3.82 5.59-3.82L5.59-3.82Q4.14-3.82 3.14-4.26L3.14-4.26Q2.79-3.78 2.79-3.12L2.79-3.12Q2.79-2.01 4.38-1.99L4.38-1.99L7.34-1.99Q8.96-1.99 9.93-1.61Q10.89-1.23 11.33-0.53Q11.76 0.16 11.76 1.07L11.76 1.07Q11.76 2.19 11.02 3.14Q10.29 4.08 8.85 4.64Q7.42 5.21 5.31 5.21L5.31 5.21Q3.48 5.21 2.42 4.82Q1.37 4.44 0.91 3.82Q0.46 3.20 0.46 2.47L0.46 2.47Q0.46 1.81 0.96 1.25Q1.47 0.68 2.47 0.28L2.47 0.28Q1.81 0 1.41-0.45Q1.01-0.90 1.01-1.65L1.01-1.65Q1.01-2.41 1.42-3.05Q1.83-3.68 2.73-4.46L2.73-4.46Q1.81-4.96 1.37-5.79Q0.92-6.61 0.92-7.60L0.92-7.60Q0.92-9.21 2.08-10.26Q3.24-11.32 5.61-11.32L5.61-11.32Q7.94-11.32 9.05-10.29L9.05-10.29L11.62-11.32Z" transform="translate(12.019800000000002 20) " fill="#000000" stroke="#000000" stroke-width="0.033" data-glyph-w="12.281100000000002" data-glyph-h="28.883700000000005" data-glyph-ascender="23.135100000000005" data-glyph-descender="-5.748600000000001" data-kerning="0"></path></g></svg>
                </g>
              </g>
              <g id="shape_VJZPxW2OoX" ref="shape_VJZPxW2OoX" key="shape_VJZPxW2OoX" mask="">
                <g transform="translate(442.65255501633493,131.23346523460003) rotate(0,59.03674392311934,49.19728660259984) scale(1,1)" style="opacity: 1;" filter="">
                  <!--普通元素-->
                  <svg version="1.1" id="图层_1" xmlns="http://www.w3.org/2000/svg" xmlns:xlink="http://www.w3.org/1999/xlink" x="0px" y="0px" width="118.07348784623868" height="98.39457320519968" viewBox="0 0 30 25" style="enable-background:new 0 0 30 25;" xml:space="preserve" class="style-removed" preserveAspectRatio="none" data-parent="shape_VJZPxW2OoX">

<g>
	<path d="M16.6,3.7c-0.8-0.1-1.9-0.4-2.2,0c-0.2,0.4-0.3,1.5-0.9,1.6c-0.6,0.1-7,0.9-8.2,8.6c-0.1,3,6,12.2,11.8,9.7
		c2-1.4,2-1.8,3.1-1.9c1.1-0.1,4.1-1.2,4.6-4.8S26,5,16.6,3.7z" fill="#e86826" stroke-width="0"></path>
	<path d="M19.7,20.7c-0.1-0.1,0.2-0.9,0-1.2s-0.4-0.8-0.6-0.6C18.9,19,19,20.1,18.6,20s-0.4-0.9-0.7-0.7s-0.6,0.1,0,1.3
		c-0.2,0.3-0.1,0.3-0.8,0.3c-0.3,0-0.8,0.3-0.6,0.6s1.1-0.2,1,0.2c-0.1,0.4-0.5,0.2-0.4,0.6c0.1,0.3,0.6,0.2,0.8,0.2
		c0.2,0.1,0.1,0.3,0.4,0.2c0.3-0.1,0.5-0.4,0.5-0.9c0.1-0.4,0.2-0.4,0.3-0.4c0.1,0,0.6,0.1,0.8,0.4c0.2,0,0.3-0.3,0.9-0.8
		c0.6-0.4,0.9-0.6,0.7-0.8c-0.2-0.3-0.6,0.1-1.1,0.3C20,20.7,19.8,20.9,19.7,20.7z" fill="#543200" stroke-width="0"></path>
</g>
</svg>
                </g>
              </g>
    </svg>